<svg width="20" height="20" viewBox="0 0 20 20" fill="none" xmlns="http://www.w3.org/2000/svg">
<path d="M9.27273 4.18182V7.09091C9.27273 7.66956 9.04286 8.22452 8.63369 8.63369C8.22452 9.04286 7.66956 9.27273 7.09091 9.27273H4.18182C3.60316 9.27273 3.04821 9.04286 2.63904 8.63369C2.22987 8.22452 2 7.66956 2 7.09091V4.18182C2 3.60316 2.22987 3.04821 2.63904 2.63904C3.04821 2.22987 3.60316 2 4.18182 2H7.09091C7.66956 2 8.22452 2.22987 8.63369 2.63904C9.04286 3.04821 9.27273 3.60316 9.27273 4.18182ZM15.8182 2H12.9091C12.3304 2 11.7755 2.22987 11.3663 2.63904C10.9571 3.04821 10.7273 3.60316 10.7273 4.18182V7.09091C10.7273 7.66956 10.9571 8.22452 11.3663 8.63369C11.7755 9.04286 12.3304 9.27273 12.9091 9.27273H15.8182C16.3968 9.27273 16.9518 9.04286 17.361 8.63369C17.7701 8.22452 18 7.66956 18 7.09091V4.18182C18 3.60316 17.7701 3.04821 17.361 2.63904C16.9518 2.22987 16.3968 2 15.8182 2ZM7.09091 10.7273H4.18182C3.60316 10.7273 3.04821 10.9571 2.63904 11.3663C2.22987 11.7755 2 12.3304 2 12.9091V15.8182C2 16.3968 2.22987 16.9518 2.63904 17.361C3.04821 17.7701 3.60316 18 4.18182 18H7.09091C7.66956 18 8.22452 17.7701 8.63369 17.361C9.04286 16.9518 9.27273 16.3968 9.27273 15.8182V12.9091C9.27273 12.3304 9.04286 11.7755 8.63369 11.3663C8.22452 10.9571 7.66956 10.7273 7.09091 10.7273ZM15.8182 10.7273H12.9091C12.3304 10.7273 11.7755 10.9571 11.3663 11.3663C10.9571 11.7755 10.7273 12.3304 10.7273 12.9091V15.8182C10.7273 16.3968 10.9571 16.9518 11.3663 17.361C11.7755 17.7701 12.3304 18 12.9091 18H15.8182C16.3968 18 16.9518 17.7701 17.361 17.361C17.7701 16.9518 18 16.3968 18 15.8182V12.9091C18 12.3304 17.7701 11.7755 17.361 11.3663C16.9518 10.9571 16.3968 10.7273 15.8182 10.7273Z" fill="#64748B"/>
</svg>
