<svg width="24" height="24" viewBox="0 0 24 24" fill="none" xmlns="http://www.w3.org/2000/svg">
<path fill-rule="evenodd" clip-rule="evenodd" d="M15.75 4.50916C13.9446 4.50916 12.4263 5.80321 12.0762 7.50916H2.25C1.83579 7.50916 1.5 7.84495 1.5 8.25916C1.5 8.67337 1.83579 9.00916 2.25 9.00916H12.0762C12.4263 10.7151 13.9446 12.0092 15.75 12.0092C17.5554 12.0092 19.0737 10.7151 19.4238 9.00916H21.75C22.1642 9.00916 22.5 8.67337 22.5 8.25916C22.5 7.84495 22.1642 7.50916 21.75 7.50916H19.4238C19.0737 5.80321 17.5554 4.50916 15.75 4.50916ZM15.75 6.00916C17.0015 6.00916 18 7.00765 18 8.25916C18 9.51066 17.0015 10.5092 15.75 10.5092C14.4985 10.5092 13.5 9.51066 13.5 8.25916C13.5 7.00765 14.4985 6.00916 15.75 6.00916Z" fill="#475263"/>
<path fill-rule="evenodd" clip-rule="evenodd" d="M8.25 12.0092C6.44461 12.0092 4.92634 13.3032 4.57617 15.0092H2.25C1.83579 15.0092 1.5 15.3449 1.5 15.7592C1.5 16.1734 1.83579 16.5092 2.25 16.5092H4.57617C4.92634 18.2151 6.44461 19.5092 8.25 19.5092C10.0554 19.5092 11.5737 18.2151 11.9238 16.5092H21.75C22.1642 16.5092 22.5 16.1734 22.5 15.7592C22.5 15.3449 22.1642 15.0092 21.75 15.0092H11.9238C11.5737 13.3032 10.0554 12.0092 8.25 12.0092ZM8.25 13.5092C9.5015 13.5092 10.5 14.5077 10.5 15.7592C10.5 17.0107 9.5015 18.0092 8.25 18.0092C6.9985 18.0092 6 17.0107 6 15.7592C6 14.5077 6.9985 13.5092 8.25 13.5092Z" fill="#475263"/>
</svg>
