<?xml version="1.0" encoding="UTF-8"?>
<svg id="Layer_1" data-name="Layer 1" xmlns="http://www.w3.org/2000/svg" version="1.1" viewBox="0 0 263.3 63.9">
  <defs>
    <style>
      .cls-1 {
        fill: #e4022d;
      }

      .cls-1, .cls-2, .cls-3, .cls-4 {
        stroke-width: 0px;
      }

      .cls-2 {
        fill: #003763;
      }

      .cls-3 {
        fill: #575756;
      }

      .cls-4 {
        fill: #fff;
      }
    </style>
  </defs>
  <g>
    <path class="cls-4" d="M63.9,32c0,17.7-14.3,32-32,32S0,49.6,0,32,14.3,0,32,0s32,14.3,32,32Z"/>
    <g>
      <path class="cls-2" d="M47,29.7c-5.1-3.5-11.6-2.1-15,3.1-2.8,4.3-7.2,4.9-8.8,4.9-5.4,0-9.2-3.8-10.3-7.8h0s0,0,0-.1c0,0,0,0,0-.1-.4-1.7-.5-2.4-.5-4.2,0-9.5,9.7-20,23.7-20s22.5,10.9,24.7,17c0-.1,0-.2-.1-.3C56.5,10.3,45.2,1.8,32,1.8S1.8,15.3,1.8,32s10.7,27.6,25.6,27.6,19.9-6.7,23.5-15.8c2-5,.6-10.9-4-14Z"/>
      <path class="cls-1" d="M60.8,23.1c-1.8-5.9-10-17.6-24.8-17.6S12.3,16.1,12.3,25.5s.1,2.5.5,4.2c-.2-.7-.3-1.4-.3-2.2,0-9.9,9.9-16.7,20-16.7s24.9,11.1,24.9,24.9-6.2,20.1-15.2,24.6h0c11.6-4.2,19.9-15.3,19.9-28.4s-.4-5.8-1.3-8.9Z"/>
    </g>
  </g>
  <g>
    <polygon class="cls-3" points="82.5 22.1 91.5 22.1 91.5 18.8 78.8 18.8 78.8 43 91.8 43 91.8 39.7 82.5 39.7 82.5 22.1"/>
    <polygon class="cls-3" points="101.6 29.4 97.6 29.4 97.6 17 94.1 17 94.1 47 97.6 47 97.6 32.6 101.6 32.6 101.6 47.2 105.2 47.2 105.2 17 101.6 17 101.6 29.4"/>
    <polygon class="cls-3" points="115.1 37.4 111.3 37.4 111.3 46.6 135.6 46.6 135.6 43.3 115.1 43.3 115.1 37.4"/>
    <polygon class="cls-3" points="135 17 131.2 17 131.2 36.3 135 36.3 135 28.5 139.3 28.5 139.3 25.2 135 25.2 135 17"/>
    <polygon class="cls-3" points="128.2 19.2 121.1 19.2 121.1 16.4 117.1 16.4 117.1 19.2 110 19.2 110 22.5 128.2 22.5 128.2 19.2"/>
    <path class="cls-3" d="M121.8,23.7c-.8-.3-1.8-.5-2.7-.5s-1.9.2-2.7.5c-.8.3-1.6.8-2.2,1.4-.6.6-1.1,1.3-1.5,2.1-.4.8-.6,1.6-.6,2.5s.2,1.7.6,2.5c.4.8.9,1.5,1.5,2.1.6.6,1.4,1,2.2,1.4.8.3,1.8.5,2.7.5s1.9-.2,2.7-.5c.8-.3,1.6-.8,2.3-1.4.6-.6,1.1-1.3,1.5-2.1.4-.8.6-1.6.6-2.5s-.2-1.7-.6-2.5c-.4-.8-.9-1.5-1.5-2.1-.7-.6-1.4-1.1-2.3-1.4ZM121.5,32c-.7.6-1.4,1-2.4,1s-1.7-.3-2.4-1c-.7-.6-1-1.4-1-2.4s.3-1.7,1-2.4c.7-.7,1.4-1,2.4-1s1.7.3,2.4,1c.7.7,1,1.5,1,2.4s-.3,1.7-1,2.4Z"/>
    <path class="cls-3" d="M158.8,18h-15.5v15.3h15.5v-15.3ZM155.1,30.1h-8.1v-8.9h8.1v8.9Z"/>
    <rect class="cls-3" x="164.9" y="17" width="3.8" height="19.3"/>
    <polygon class="cls-3" points="147.9 36.5 144.1 36.5 144.1 46.6 168.9 46.6 168.9 43.2 147.9 43.2 147.9 36.5"/>
    <polygon class="cls-3" points="195.1 26.6 198.9 26.6 198.9 17.6 175.6 17.6 175.6 20.9 195.1 20.9 195.1 26.6"/>
    <polygon class="cls-3" points="173.3 32.3 185.4 32.3 185.4 36.7 175.2 36.7 175.2 40 195.1 40 195.1 47.2 198.9 47.2 198.9 36.7 189.1 36.7 189.1 32.3 201.1 32.3 201.1 29 173.3 29 173.3 32.3"/>
    <polygon class="cls-3" points="227.7 23 222 23 222 26.2 227.7 26.2 227.7 33 231.4 33 231.4 17 227.7 17 227.7 23"/>
    <path class="cls-3" d="M226.5,35.5c-.7-.7-1.5-1.2-2.5-1.6-1-.4-2-.6-3.1-.6s-2.1.2-3,.6c-1,.4-1.8.9-2.5,1.6-.7.7-1.3,1.5-1.7,2.4-.4.9-.6,1.8-.6,2.9s.2,2,.6,2.9c.4.9,1,1.7,1.7,2.4.7.7,1.5,1.2,2.5,1.6,1,.4,2,.6,3,.6s2.1-.2,3.1-.6c1-.4,1.8-.9,2.5-1.6.7-.7,1.3-1.5,1.7-2.4.4-.9.6-1.8.6-2.9s-.2-2-.6-2.9c-.4-.9-1-1.7-1.7-2.4ZM223.9,43.6c-.8.8-1.8,1.2-3,1.2s-2.1-.4-2.9-1.2c-.8-.8-1.2-1.8-1.2-2.9s.4-2.1,1.2-2.9c.8-.8,1.8-1.2,2.9-1.2s2.1.4,3,1.2c.8.8,1.2,1.8,1.2,2.9s-.4,2.1-1.2,2.9Z"/>
    <polygon class="cls-3" points="219.9 32.4 222.5 30.2 214.8 20.8 222.2 20.8 222.2 17.6 204.9 17.6 204.9 20.8 212.5 20.8 204.8 30.7 207.5 32.9 213.6 24.7 219.9 32.4"/>
    <polygon class="cls-3" points="235.6 36 235.6 39.4 247.6 39.4 247.6 47.1 251.3 47.1 251.3 39.4 263.3 39.4 263.3 36 235.6 36"/>
    <path class="cls-3" d="M261.1,17.5h-3.7v3.8h-15.9v-3.8h-3.7v14.5h23.3v-14.5ZM241.5,28.7v-4.2h15.9v4.2h-15.9Z"/>
  </g>
</svg>