<svg width="24" height="24" viewBox="0 0 24 24" fill="none" xmlns="http://www.w3.org/2000/svg">
<path d="M16.9746 6.1757C17.2088 5.94141 17.5889 5.94146 17.8232 6.1757C18.0575 6.41 18.0575 6.79002 17.8232 7.02433L12.8486 11.998L17.8261 16.9755C18.0604 17.2098 18.0603 17.5898 17.8261 17.8241C17.5918 18.0584 17.2118 18.0584 16.9775 17.8241L11.9999 12.8466L7.02338 17.8241C6.78911 18.0584 6.41003 18.0583 6.17573 17.8241C5.94142 17.5898 5.94143 17.2098 6.17573 16.9755L11.1513 11.998L6.17768 7.02433C5.94359 6.79001 5.94442 6.40993 6.17866 6.1757C6.41291 5.94175 6.79209 5.94171 7.02631 6.1757L11.9999 11.1493L16.9746 6.1757Z" fill="#6D7882"/>
</svg>
