<svg width="20" height="20" viewBox="0 0 20 20" fill="none" xmlns="http://www.w3.org/2000/svg">
<path d="M10 6.36361C7.9909 6.36361 6.36366 7.9909 6.36366 9.99996C6.36366 12.009 7.9909 13.6363 10 13.6363C12.0091 13.6363 13.6363 12.0091 13.6363 10C13.6363 7.99094 12.0091 6.36361 10 6.36361ZM18.1273 9.09088C17.7091 5.29998 14.7 2.29091 10.9091 1.87274V0H9.09088V1.87274C5.29998 2.29091 2.29091 5.29998 1.87274 9.09088H0V10.9091H1.87274C2.29091 14.7 5.30002 17.7091 9.09092 18.1273V20H10.9091V18.1273C14.7 17.7091 17.7091 14.7 18.1273 10.9091H20V9.09088H18.1273ZM10 16.3636C6.48638 16.3636 3.63639 13.5136 3.63639 10C3.63639 6.48638 6.48638 3.63639 10 3.63639C13.5136 3.63639 16.3636 6.48634 16.3636 10C16.3636 13.5137 13.5136 16.3636 10 16.3636Z" fill="#464C53"/>
</svg>
