<svg width="24" height="24" viewBox="0 0 24 24" fill="none" xmlns="http://www.w3.org/2000/svg">
<path d="M20.25 9.02997H3.74995C3.33604 9.02997 3 9.36601 3 9.77992V18.75C3 19.9905 4.00951 21 5.25 21H18.75C19.9905 21 21 19.9905 21 18.75V9.77992C21 9.36601 20.664 9.02997 20.25 9.02997Z" fill="#CDD1D5"/>
<path d="M18.75 5.25H5.25C4.00731 5.25 3 6.25731 3 7.5V9.77994H21V7.5C21 6.25731 19.9927 5.25 18.75 5.25Z" fill="#8A949E"/>
<path d="M7.50005 3H6.75009C6.33604 3 6 3.33604 6 3.74995V6.75005C6 7.16396 6.33604 7.5 6.75009 7.5H7.50005C7.91409 7.5 8.25 7.16396 8.25 6.75005V3.74995C8.25 3.33604 7.91409 3 7.50005 3Z" fill="#58616A"/>
<path d="M17.2499 3H16.5C16.0859 3 15.75 3.33604 15.75 3.74995V6.75005C15.75 7.16396 16.0859 7.5 16.5 7.5H17.2499C17.664 7.5 18 7.16396 18 6.75005V3.74995C18 3.33604 17.664 3 17.2499 3Z" fill="#58616A"/>
</svg>
