<svg width="14" height="18" viewBox="0 0 14 18" fill="none" xmlns="http://www.w3.org/2000/svg">
<path d="M13.2152 3.79571C12.6942 2.76066 11.9234 1.87419 10.9736 1.2178C10.0238 0.561411 8.9255 0.15616 7.77965 0.0393066C7.26131 -0.0131022 6.73905 -0.0131022 6.22071 0.0393066C5.07488 0.156237 3.97659 0.561476 3.02675 1.21779C2.07692 1.8741 1.30599 2.76044 0.784824 3.79536C0.129113 5.11586 -0.124161 6.60236 0.0569026 8.06764C0.237966 9.53291 0.845269 10.9114 1.80232 12.0296L6.46927 17.7473C6.53372 17.8263 6.61475 17.89 6.70651 17.9336C6.79828 17.9773 6.89851 18 7.00001 18C7.1015 18 7.20174 17.9773 7.2935 17.9336C7.38527 17.89 7.46629 17.8263 7.53074 17.7473L12.1977 12.0296C13.1547 10.9115 13.762 9.53304 13.9431 8.06782C14.1242 6.6026 13.8709 5.11615 13.2152 3.79571ZM7.00001 9.69194C6.45648 9.69194 5.92515 9.52952 5.47323 9.22523C5.0213 8.92093 4.66906 8.48843 4.46106 7.98241C4.25306 7.47639 4.19864 6.91958 4.30468 6.38239C4.41071 5.8452 4.67245 5.35176 5.05678 4.96447C5.44112 4.57718 5.93079 4.31343 6.46387 4.20657C6.99696 4.09972 7.54952 4.15456 8.05167 4.36416C8.55383 4.57376 8.98303 4.92871 9.285 5.38412C9.58697 5.83952 9.74814 6.37494 9.74814 6.92265C9.74729 7.65685 9.45748 8.36072 8.94229 8.87988C8.4271 9.39904 7.7286 9.69108 7.00001 9.69194Z" fill="#CFD4DB"/>
</svg>
