<svg width="32" height="32" viewBox="0 0 32 32" fill="none" xmlns="http://www.w3.org/2000/svg">
<circle cx="16" cy="16" r="16" fill="#F4F5F6"/>
<path d="M19.8823 12.1175C19.8823 14.0969 18.2636 15.7015 16.2668 15.7015C14.27 15.7015 12.6513 14.0969 12.6513 12.1175C12.6513 10.1381 14.27 8.53351 16.2668 8.53351C18.2636 8.53351 19.8823 10.1381 19.8823 12.1175Z" fill="#F4F5F6"/>
<path d="M7.4668 23.4668C8.79791 21.2659 11.7153 19.7596 16.2668 19.7596C20.8183 19.7596 23.7357 21.2659 25.0668 23.4668M19.8823 12.1175C19.8823 14.0969 18.2636 15.7015 16.2668 15.7015C14.27 15.7015 12.6513 14.0969 12.6513 12.1175C12.6513 10.1381 14.27 8.53351 16.2668 8.53351C18.2636 8.53351 19.8823 10.1381 19.8823 12.1175Z" stroke="#6D7882" stroke-width="1.5" stroke-linecap="round"/>
</svg>
